<?xml version="1.0" standalone="no"?>
<!DOCTYPE svg PUBLIC "-//W3C//DTD SVG 20010904//EN"
 "http://www.w3.org/TR/2001/REC-SVG-20010904/DTD/svg10.dtd">
<svg version="1.0" xmlns="http://www.w3.org/2000/svg"
 width="280.000000pt" height="280.000000pt" viewBox="0 0 280.000000 280.000000"
 preserveAspectRatio="xMidYMid meet">
<metadata>
Created by potrace 1.11, written by Peter Selinger 2001-2013
</metadata>
<g transform="translate(0.000000,280.000000) scale(0.100000,-0.100000)"
fill="#000000" stroke="none">
<path d="M1260 1834 c-134 -170 -274 -345 -310 -390 -36 -44 -76 -96 -90 -114
-14 -18 -52 -67 -86 -109 -181 -225 -266 -334 -270 -345 -3 -7 2 -19 11 -26
13 -10 18 -9 34 11 11 13 124 156 253 318 l233 294 195 -1 c107 0 203 -1 212
-1 16 -1 18 -25 20 -308 l3 -308 23 -3 22 -3 0 310 c0 242 3 311 13 312 6 0
162 1 345 2 289 2 332 0 333 -13 0 -8 1 -145 1 -305 1 -186 4 -292 11 -297 37
-23 37 -15 37 644 l0 639 -22 -3 -23 -3 -2 -295 c-1 -162 -2 -300 -2 -307 -1
-9 -85 -11 -343 -10 l-343 2 -5 309 -5 310 -245 -310z m200 -74 l0 -240 -190
2 c-105 0 -189 4 -188 8 5 10 371 470 375 470 1 0 3 -108 3 -240z"/>
<path d="M516 743 c-19 -55 -20 -76 -3 -48 15 25 43 30 51 10 3 -8 10 -15 15
-15 5 0 1 23 -11 50 -11 28 -24 50 -28 50 -5 0 -15 -21 -24 -47z m30 -10 c-10
-10 -19 5 -10 18 6 11 8 11 12 0 2 -7 1 -15 -2 -18z"/>
<path d="M629 788 c-6 -12 -3 -91 3 -94 5 -3 8 12 8 33 l0 38 28 -43 c16 -23
32 -39 35 -35 11 10 8 103 -3 103 -5 0 -10 -17 -10 -37 l-1 -38 -22 37 c-19
32 -33 46 -38 36z"/>
<path d="M768 779 c-26 -15 -23 -64 4 -83 29 -20 34 -20 58 4 48 48 -4 113
-62 79z m50 -8 c21 -13 11 -65 -12 -70 -37 -7 -54 49 -22 71 14 10 18 10 34
-1z"/>
<path d="M894 767 c11 -46 25 -77 35 -77 9 0 41 71 41 91 0 21 -19 -2 -25 -31
-4 -17 -10 -30 -15 -30 -5 0 -11 13 -15 30 -4 16 -11 33 -17 36 -7 5 -9 -2 -4
-19z"/>
<path d="M1016 747 c-19 -50 -20 -68 -3 -47 15 19 35 19 47 0 5 -8 11 -12 14
-9 8 7 -24 99 -34 99 -4 0 -15 -19 -24 -43z m34 -2 c0 -8 -4 -15 -10 -15 -5 0
-10 7 -10 15 0 8 5 15 10 15 6 0 10 -7 10 -15z"/>
<path d="M1180 741 c0 -28 5 -51 10 -51 6 0 10 11 10 24 0 18 5 23 18 21 9 -2
21 -4 26 -4 4 -1 6 -10 3 -21 -3 -11 -1 -20 4 -20 10 0 11 5 11 50 0 47 -1 52
-12 45 -5 -3 -7 -12 -3 -20 4 -11 -3 -15 -26 -15 -22 0 -29 4 -25 14 3 8 1 17
-5 21 -7 4 -11 -11 -11 -44z"/>
<path d="M1322 743 c-23 -52 -22 -64 3 -39 21 21 32 20 44 -1 5 -10 12 -15 15
-13 6 7 -26 100 -35 100 -4 0 -16 -21 -27 -47z m38 -4 c0 -5 -7 -9 -15 -9 -9
0 -12 6 -9 15 6 15 24 11 24 -6z"/>
<path d="M1435 767 c-31 -49 18 -103 64 -70 12 8 21 19 21 25 0 6 -8 4 -18 -5
-25 -23 -49 -21 -57 3 -6 18 9 60 21 60 3 0 15 -5 26 -11 16 -9 19 -8 16 3 -8
24 -55 21 -73 -5z"/>
<path d="M1561 733 c1 -42 3 -51 8 -33 8 26 30 29 44 4 4 -8 13 -14 18 -14 6
0 1 13 -10 29 -20 28 -20 28 -1 46 11 10 18 21 15 23 -3 3 -18 -7 -34 -22
l-29 -28 2 26 c2 14 -1 26 -5 26 -5 0 -9 -26 -8 -57z"/>
<path d="M1690 780 c-20 -13 -2 -44 29 -48 11 -2 21 -10 21 -18 0 -16 -36 -19
-45 -4 -3 6 -11 10 -17 10 -6 0 -3 -9 6 -19 17 -18 43 -20 66 -6 21 13 9 37
-27 51 -32 14 -35 17 -19 26 12 7 21 7 29 -1 17 -17 31 -13 17 4 -14 17 -38
19 -60 5z"/>
<path d="M1870 775 c-7 -8 -9 -19 -5 -23 4 -4 10 -1 12 6 6 16 33 16 33 0 0
-7 -12 -22 -27 -34 -16 -12 -26 -25 -23 -27 11 -11 60 -15 65 -6 4 5 -6 9 -22
9 l-28 0 30 24 c25 21 28 28 19 43 -15 24 -38 28 -54 8z"/>
<path d="M1978 773 c-18 -23 -16 -60 6 -81 15 -15 17 -15 33 0 19 20 20 77 1
89 -19 12 -23 11 -40 -8z m40 -35 c-3 -36 -30 -46 -36 -15 -5 26 5 47 23 47
12 0 15 -8 13 -32z"/>
<path d="M2193 778 c-15 -20 -16 -88 -1 -89 45 -4 59 12 51 56 -8 42 -32 57
-50 33z m27 -28 c-18 -11 -24 -6 -16 16 5 14 9 15 19 5 9 -9 9 -14 -3 -21z
m10 -36 c0 -9 -7 -14 -17 -12 -25 5 -28 28 -4 28 12 0 21 -6 21 -16z"/>
<path d="M2091 771 c-9 -6 -10 -11 -2 -15 6 -4 11 -20 11 -37 0 -16 5 -29 10
-29 6 0 9 20 8 45 -1 47 -4 50 -27 36z"/>
</g>
</svg>
